<svg width="141" height="46" xmlns="http://www.w3.org/2000/svg" xmlns:xlink="http://www.w3.org/1999/xlink"><defs><path id="a" d="M0 .666h140.986V46H0z"/></defs><g fill="none" fill-rule="evenodd"><g transform="translate(0 -.665)"><mask id="b" fill="#fff"><use xlink:href="#a"/></mask><path d="M136.725 46H4.26A4.26 4.26 0 010 41.74V4.926A4.26 4.26 0 014.26.666h132.465a4.26 4.26 0 014.26 4.26V41.74a4.26 4.26 0 01-4.26 4.26" fill="#C03" mask="url(#b)"/></g><path d="M29.5 26.27l7.996 2.435c-.537 2.257-1.383 4.143-2.537 5.657a11.044 11.044 0 01-4.3 3.427c-1.713.77-3.89 1.155-6.537 1.155-3.21 0-5.83-.47-7.866-1.408-2.034-.94-3.79-2.59-5.267-4.954-1.477-2.365-2.216-5.391-2.216-9.08 0-4.917 1.3-8.696 3.898-11.336 2.6-2.642 6.274-3.962 11.028-3.962 3.72 0 6.644.757 8.772 2.27 2.13 1.515 3.71 3.84 4.744 6.977l-8.058 1.804c-.28-.906-.577-1.568-.886-1.987a5.246 5.246 0 00-1.873-1.622c-.739-.38-1.565-.568-2.477-.568-2.068 0-3.653.838-4.754 2.51-.833 1.244-1.249 3.195-1.249 5.854 0 3.295.496 5.554 1.49 6.775.994 1.222 2.391 1.833 4.19 1.833 1.746 0 3.065-.494 3.96-1.48.891-.986 1.54-2.42 1.942-4.3M56.719 26.9L53.46 16.33 50.235 26.9h6.484zm1.893 6.36h-10.36l-1.438 4.855h-9.318l11.099-29.41h9.953l11.097 29.41h-9.556l-1.477-4.855zM72.265 8.705h12L88.893 26.6l4.595-17.895h11.992v29.41h-7.473V15.685l-5.758 22.428h-6.764l-5.747-22.428v22.428h-7.473zM108.885 28.385l8.682-.542c.187 1.404.57 2.475 1.147 3.21.941 1.19 2.283 1.786 4.029 1.786 1.302 0 2.306-.305 3.011-.913.705-.608 1.058-1.314 1.058-2.116 0-.763-.336-1.445-1.007-2.047-.672-.602-2.23-1.17-4.674-1.705-4.001-.896-6.854-2.086-8.56-3.571-1.719-1.485-2.579-3.376-2.579-5.677 0-1.511.44-2.94 1.32-4.283.88-1.344 2.202-2.401 3.969-3.17 1.765-.77 4.185-1.154 7.26-1.154 3.774 0 6.651.7 8.632 2.097 1.981 1.398 3.158 3.62 3.534 6.67l-8.6.502c-.229-1.324-.708-2.287-1.441-2.89-.731-.601-1.742-.902-3.031-.902-1.061 0-1.86.225-2.396.672-.539.449-.806.993-.806 1.636 0 .467.222.889.664 1.263.43.388 1.45.749 3.061 1.083 3.989.857 6.846 1.723 8.572 2.599 1.725.876 2.98 1.962 3.766 3.26.785 1.296 1.179 2.748 1.179 4.352 0 1.886-.524 3.625-1.571 5.217-1.048 1.59-2.512 2.798-4.392 3.62-1.88.823-4.25 1.234-7.11 1.234-5.023 0-8.5-.962-10.434-2.888-1.933-1.926-3.028-4.374-3.283-7.343" fill="#231F20"/><path d="M28.236 25.205l7.996 2.434c-.537 2.257-1.383 4.143-2.538 5.657a11.025 11.025 0 01-4.3 3.427c-1.712.77-3.891 1.156-6.536 1.156-3.21 0-5.832-.47-7.866-1.408-2.034-.94-3.79-2.59-5.268-4.955-1.476-2.365-2.215-5.39-2.215-9.079 0-4.917 1.299-8.696 3.898-11.337 2.598-2.64 6.274-3.962 11.027-3.962 3.72 0 6.645.757 8.773 2.271 2.128 1.515 3.71 3.84 4.744 6.976l-8.058 1.804c-.282-.905-.577-1.568-.886-1.987a5.26 5.26 0 00-1.874-1.622c-.738-.378-1.564-.567-2.477-.567-2.067 0-3.652.837-4.753 2.51-.833 1.243-1.25 3.194-1.25 5.854 0 3.294.497 5.553 1.49 6.774.995 1.223 2.392 1.833 4.19 1.833 1.747 0 3.066-.493 3.959-1.48.893-.986 1.54-2.419 1.944-4.299M55.454 25.835l-3.259-10.572-3.225 10.572h6.484zm1.893 6.36h-10.36L45.55 37.05h-9.318l11.1-29.41h9.952L68.38 37.05h-9.556l-1.477-4.856zM71 7.64h12l4.627 17.895L92.222 7.64h11.993v29.41h-7.473V14.62l-5.758 22.43H84.22l-5.747-22.43v22.43H71zM107.62 27.32l8.682-.541c.187 1.404.57 2.474 1.147 3.21.941 1.19 2.283 1.784 4.028 1.784 1.303 0 2.307-.304 3.012-.913.705-.607 1.058-1.313 1.058-2.116 0-.762-.336-1.445-1.007-2.046-.672-.602-2.23-1.17-4.674-1.706-4-.896-6.855-2.085-8.56-3.57-1.719-1.485-2.579-3.377-2.579-5.678 0-1.51.44-2.938 1.32-4.283.88-1.344 2.202-2.4 3.97-3.168 1.763-.77 4.184-1.155 7.26-1.155 3.773 0 6.65.7 8.63 2.097 1.982 1.398 3.16 3.62 3.535 6.67l-8.6.502c-.229-1.325-.709-2.287-1.44-2.89-.732-.6-1.743-.901-3.032-.901-1.06 0-1.86.223-2.397.671-.538.448-.805.993-.805 1.635 0 .468.221.89.664 1.264.43.389 1.45.748 3.061 1.084 3.99.855 6.846 1.721 8.572 2.598 1.724.876 2.98 1.963 3.766 3.26.785 1.296 1.178 2.747 1.178 4.352 0 1.886-.523 3.625-1.57 5.216-1.048 1.593-2.512 2.8-4.392 3.622-1.88.822-4.25 1.233-7.11 1.233-5.023 0-8.5-.962-10.434-2.889-1.933-1.925-3.028-4.372-3.283-7.342" fill="#FFF"/></g></svg>